<svg width="25" height="22" viewBox="0 0 25 22" fill="none" xmlns="http://www.w3.org/2000/svg">
<path d="M23.4974 8.96534C23.3951 8.94874 23.2916 8.94108 23.188 8.94242H5.55097L5.93555 8.76355C6.31146 8.58563 6.65345 8.34348 6.94619 8.04806L11.892 3.1022C12.5434 2.48039 12.6529 1.48009 12.1514 0.732118C11.5678 -0.0649324 10.4485 -0.237993 9.65143 0.345639C9.58703 0.392817 9.52583 0.444243 9.46831 0.499582L0.524617 9.44327C-0.174332 10.1414 -0.174947 11.274 0.52322 11.9729C0.523667 11.9734 0.52417 11.9739 0.524617 11.9743L9.46831 20.918C10.1678 21.6156 11.3004 21.614 11.998 20.9145C12.0529 20.8594 12.1041 20.8009 12.1514 20.7392C12.6529 19.9912 12.5434 18.9909 11.892 18.3691L6.95513 13.4143C6.69269 13.1515 6.39095 12.9313 6.06076 12.7614L5.52414 12.5199H23.0895C24.0033 12.5538 24.805 11.9155 24.9767 11.0174C25.1348 10.0422 24.4725 9.12354 23.4974 8.96534Z" fill="white"/>
</svg>
