<svg width="25" height="25" viewBox="0 0 25 25" fill="none" xmlns="http://www.w3.org/2000/svg">
<path d="M12.5 0C10.0277 0 7.61099 0.733112 5.55538 2.10663C3.49976 3.48015 1.89761 5.43238 0.951511 7.71646C0.00541607 10.0005 -0.242126 12.5139 0.24019 14.9386C0.722505 17.3634 1.91301 19.5907 3.66117 21.3388C5.40933 23.087 7.63661 24.2775 10.0614 24.7598C12.4861 25.2421 14.9995 24.9946 17.2835 24.0485C19.5676 23.1024 21.5199 21.5002 22.8934 19.4446C24.2669 17.389 25 14.9723 25 12.5C25 9.18479 23.683 6.00537 21.3388 3.66116C18.9946 1.31696 15.8152 0 12.5 0ZM18.0208 15.9687C18.1677 16.1006 18.2861 16.2611 18.3689 16.4402C18.4517 16.6194 18.4971 16.8136 18.5024 17.0109C18.5077 17.2082 18.4727 17.4045 18.3996 17.5879C18.3265 17.7712 18.2169 17.9377 18.0773 18.0773C17.9377 18.2169 17.7712 18.3265 17.5879 18.3996C17.4045 18.4727 17.2082 18.5077 17.0109 18.5024C16.8136 18.4971 16.6194 18.4517 16.4402 18.3689C16.2611 18.2861 16.1006 18.1677 15.9688 18.0208L12.5 14.5521L9.03125 18.0208C8.89936 18.1677 8.73893 18.2861 8.55976 18.3689C8.38058 18.4517 8.18642 18.4971 7.98912 18.5024C7.79181 18.5077 7.5955 18.4727 7.41215 18.3996C7.2288 18.3265 7.06227 18.2169 6.9227 18.0773C6.78313 17.9377 6.67346 17.7712 6.60038 17.5879C6.52729 17.4045 6.49233 17.2082 6.49761 17.0109C6.5029 16.8136 6.54832 16.6194 6.63111 16.4402C6.71391 16.2611 6.83233 16.1006 6.97917 15.9687L10.4479 12.5L6.97917 9.03125C6.73063 8.75456 6.59765 8.3931 6.6076 8.0213C6.61756 7.64951 6.7697 7.29568 7.03269 7.03269C7.29569 6.7697 7.64951 6.61756 8.02131 6.6076C8.3931 6.59764 8.75456 6.73063 9.03125 6.97917L12.5 10.4479L15.9688 6.97917C16.1006 6.83233 16.2611 6.7139 16.4402 6.63111C16.6194 6.54832 16.8136 6.50289 17.0109 6.49761C17.2082 6.49232 17.4045 6.52729 17.5879 6.60037C17.7712 6.67346 17.9377 6.78313 18.0773 6.9227C18.2169 7.06226 18.3265 7.2288 18.3996 7.41215C18.4727 7.59549 18.5077 7.79181 18.5024 7.98911C18.4971 8.18642 18.4517 8.38058 18.3689 8.55975C18.2861 8.73892 18.1677 8.89935 18.0208 9.03125L14.5521 12.5L18.0208 15.9687Z" fill="#FFCC00" fill-opacity="0.9"/>
</svg>
