<svg width="69" height="70" viewBox="0 0 69 70" fill="none" xmlns="http://www.w3.org/2000/svg">
<path d="M41.3087 7.289C38.4363 6.57375 35.4668 6.32001 32.4826 6.53497C31.0327 6.63941 29.5844 6.85571 28.1774 7.17835L26.734 0.880591C28.4619 0.484591 30.2398 0.218835 32.0183 0.0907534C35.6839 -0.173246 39.3348 0.139392 42.8702 1.02002L41.3087 7.289Z" fill="white"/>
<path opacity="0.9" d="M56.0458 16.5019C53.1984 13.1168 49.5478 10.4149 45.4886 8.68894L48.017 2.74341C53.0063 4.86473 57.4925 8.18432 60.9905 12.3435L56.0458 16.5019Z" fill="white"/>
<path opacity="0.8" d="M62.5594 32.6143L62.5558 32.5663C62.2339 28.0967 60.9075 23.8998 58.6133 20.092L64.1477 16.7581C66.9717 21.4455 68.6043 26.6081 69.0001 32.1021L62.5594 32.6143Z" fill="white"/>
<path opacity="0.7" d="M63.8511 52.8919L58.3716 49.4687C60.7145 45.7185 62.1515 41.4156 62.5273 37.0247L68.9649 37.576C68.5021 42.9814 66.7338 48.278 63.8511 52.8919Z" fill="white"/>
<path opacity="0.6" d="M47.5005 66.6475L45.0741 60.66C49.1542 59.0065 52.8452 56.364 55.7483 53.0183L60.6283 57.2526C57.0604 61.3648 52.5208 64.6135 47.5005 66.6475Z" fill="white"/>
<path opacity="0.5" d="M36.9881 69.0843C33.3394 69.3467 29.7057 69.0381 26.1873 68.167L27.7394 61.8958C30.5982 62.6032 33.554 62.8535 36.5245 62.6401C37.9886 62.5345 39.4509 62.3149 40.8703 61.9874L42.3238 68.2825C40.58 68.6849 38.7848 68.9548 36.9881 69.0843Z" fill="white"/>
<path opacity="0.4" d="M21.0375 66.451C16.045 64.3372 11.5539 61.0242 8.04993 56.8705L12.9881 52.7046C15.8406 56.0854 19.495 58.7817 23.5567 60.5012L21.0375 66.451Z" fill="white"/>
<path opacity="0.3" d="M4.88616 52.4616C2.04539 47.7612 0.403701 42.5837 0.00662026 37.0718L0 36.9769L6.44422 36.5127L6.45259 36.6319C6.77388 41.0919 8.10766 45.3013 10.4156 49.1193L4.88616 52.4616Z" fill="white"/>
<path opacity="0.2" d="M6.48301 32.1073L0.0466309 31.5462C0.517345 26.1417 2.29374 20.8479 5.18341 16.2383L10.6577 19.6696C8.30912 23.4164 6.8655 27.7173 6.48301 32.1073Z" fill="white"/>
</svg>
