<svg width="37" height="37" viewBox="0 0 37 37" fill="none" xmlns="http://www.w3.org/2000/svg">
<path d="M6.31176 14.6723C6.14341 14.6177 5.95874 14.6562 5.82619 14.7735L0.701251 19.3084C0.585279 19.4111 0.523402 19.5616 0.533699 19.7161C0.731445 22.6833 1.66674 25.5543 3.25486 28.0692C3.33736 28.1998 3.47561 28.2849 3.62939 28.2999L10.4387 28.9598C10.615 28.9769 10.7871 28.8995 10.8913 28.7562L13.6814 24.9188C13.7705 24.7962 13.7993 24.6399 13.7596 24.4936L11.6243 16.6331C11.58 16.4702 11.4565 16.3406 11.296 16.2886L6.31176 14.6723Z" fill="#FF0000" stroke="white" stroke-linejoin="round"/>
<path d="M32.7821 29.4537C32.9035 29.2958 32.9196 29.0809 32.8231 28.9066C32.7265 28.7324 32.5358 28.632 32.3375 28.6513L26.5984 29.2075C26.4177 29.225 26.2607 29.339 26.1882 29.5054L23.8828 34.796C23.8032 34.9787 23.8397 35.1912 23.9756 35.3369C24.1116 35.4825 24.3211 35.5336 24.5088 35.4668C27.7882 34.3 30.661 32.2121 32.7821 29.4537Z" fill="#FF0000" stroke="white" stroke-linejoin="round"/>
<path d="M22.5648 24.6229C22.7905 24.6229 22.9882 24.4717 23.0473 24.254L25.1063 16.6753C25.1623 16.4694 25.0814 16.2507 24.905 16.1308L18.7818 11.9664C18.6122 11.851 18.3892 11.851 18.2195 11.9664L12.0963 16.1308C11.9199 16.2507 11.8391 16.4694 11.895 16.6753L13.9533 24.2539C14.0125 24.4717 14.2102 24.6229 14.4359 24.6229H22.5648Z" fill="#FF0000" stroke="white" stroke-linejoin="round"/>
<path d="M25.964 29.3964C26.0351 29.2337 26.0145 29.0455 25.9099 28.902L23.126 25.0801C23.0319 24.9509 22.8817 24.8745 22.7219 24.8745H14.2783C14.1183 24.8745 13.968 24.9511 13.8739 25.0804L11.0932 28.9041C10.9889 29.0475 10.9684 29.2354 11.0392 29.398L13.7743 35.6735C13.8362 35.8156 13.9605 35.921 14.1109 35.9587C16.9914 36.6821 20.0063 36.6821 22.8868 35.9587C23.0371 35.921 23.1613 35.8158 23.2233 35.6738L25.964 29.3964Z" fill="#FF0000" stroke="white" stroke-linejoin="round"/>
<path d="M12.4946 35.4668C12.6824 35.5336 12.8918 35.4825 13.0277 35.3368C13.1637 35.1911 13.2001 34.9786 13.1205 34.796L10.8145 29.5054C10.7419 29.339 10.585 29.225 10.4043 29.2075L4.66395 28.6513C4.46566 28.632 4.27489 28.7324 4.17835 28.9066C4.08182 29.0809 4.09793 29.2958 4.21938 29.4537C6.34101 32.2124 9.21447 34.3004 12.4946 35.4668Z" fill="#FF0000" stroke="white" stroke-linejoin="round"/>
<path d="M4.56482 8.48345C4.52191 8.28923 4.36797 8.13892 4.17279 8.10065C3.9776 8.06238 3.7783 8.14344 3.66524 8.30708C1.68613 11.1714 0.586159 14.5504 0.500153 18.0301C0.495237 18.229 0.608689 18.4118 0.789055 18.4958C0.969422 18.5797 1.18239 18.5487 1.33136 18.4169L5.65135 14.5938C5.78734 14.4735 5.84739 14.2888 5.80821 14.1115L4.56482 8.48345Z" fill="#FF0000" stroke="white" stroke-linejoin="round"/>
<path d="M11.4083 16.0626C11.5553 16.1103 11.716 16.0873 11.8438 16.0005L18.1564 11.7074C18.2933 11.6143 18.3753 11.4595 18.3753 11.2939V5.73148C18.3753 5.55424 18.2814 5.39024 18.1286 5.30042L12.23 1.83359C12.0962 1.75496 11.9335 1.7429 11.7896 1.80096C9.0331 2.91295 6.59325 4.68652 4.68578 6.96487C4.58619 7.08382 4.54746 7.24226 4.58093 7.39373L6.05574 14.0674C6.094 14.2405 6.22108 14.3804 6.38973 14.4351L11.4083 16.0626Z" fill="#FF0000" stroke="white" stroke-linejoin="round"/>
<path d="M35.6701 18.4166C35.8191 18.5484 36.0321 18.5794 36.2124 18.4954C36.3928 18.4115 36.5062 18.2286 36.5013 18.0297C36.4152 14.5499 35.3152 11.1707 33.3362 8.30613C33.2232 8.14249 33.0239 8.06141 32.8287 8.09967C32.6335 8.13792 32.4796 8.28822 32.4366 8.48243L31.1926 14.1111C31.1534 14.2885 31.2135 14.4731 31.3495 14.5935L35.6701 18.4166Z" fill="#FF0000" stroke="white" stroke-linejoin="round"/>
<path d="M23.7303 2.15474C23.9019 2.05384 23.9972 1.86078 23.9731 1.6632C23.9491 1.46562 23.8101 1.30115 23.6193 1.24445C20.2792 0.25185 16.7223 0.25185 13.3822 1.24445C13.1914 1.30115 13.0524 1.46562 13.0283 1.6632C13.0042 1.86078 13.0996 2.05384 13.2712 2.15474L18.2473 5.08095C18.4037 5.17295 18.5977 5.17295 18.7542 5.08095L23.7303 2.15474Z" fill="#FF0000" stroke="white" stroke-linejoin="round"/>
<path d="M18.6262 11.2939C18.6262 11.4595 18.7081 11.6143 18.845 11.7074L25.1583 16.0005C25.286 16.0873 25.4466 16.1102 25.5935 16.0627L30.6115 14.4377C30.7802 14.383 30.9074 14.2431 30.9457 14.0699L32.4199 7.39556C32.4533 7.24414 32.4146 7.08578 32.3151 6.96685C30.408 4.68764 27.968 2.91336 25.2113 1.80097C25.0673 1.74289 24.9045 1.75496 24.7707 1.83364L18.8727 5.30173C18.72 5.39155 18.6262 5.55552 18.6262 5.73273V11.2939Z" fill="#FF0000" stroke="white" stroke-linejoin="round"/>
<path d="M36.4678 19.7162C36.4781 19.5616 36.4162 19.4111 36.3003 19.3084L31.1753 14.7735C31.0428 14.6562 30.8581 14.6177 30.6898 14.6723L25.7055 16.2886C25.545 16.3406 25.4215 16.4702 25.3773 16.6331L23.242 24.4936C23.2023 24.6399 23.231 24.7962 23.3201 24.9188L26.1096 28.755C26.2137 28.8982 26.3859 28.9757 26.5621 28.9586L33.372 28.2999C33.5259 28.285 33.6642 28.1998 33.7467 28.0691C35.3347 25.5543 36.27 22.6833 36.4678 19.7162Z" fill="#FF0000" stroke="white" stroke-linejoin="round"/>
</svg>
