<svg width="20" height="21" viewBox="0 0 20 21" fill="none" xmlns="http://www.w3.org/2000/svg">
<path d="M8.5689 9.28257C9.55484 9.28257 10.3541 8.48331 10.3541 7.49737C10.3541 6.51142 9.55484 5.71216 8.5689 5.71216C7.58296 5.71216 6.78369 6.51142 6.78369 7.49737C6.78369 8.48331 7.58296 9.28257 8.5689 9.28257Z" fill="white"/>
<path d="M19.8374 14.5454C19.6444 13.8361 19.2694 13.1896 18.7496 12.6698C18.2298 12.15 17.5833 11.775 16.874 11.5819C16.1402 11.3737 15.3641 11.3651 14.6259 11.5571C13.8877 11.7491 13.2142 12.1347 12.6748 12.6741C12.1355 13.2134 11.7499 13.887 11.5579 14.6252C11.3659 15.3634 11.3744 16.1395 11.5826 16.8733C11.7757 17.5825 12.1507 18.2291 12.6705 18.7488C13.1903 19.2686 13.8368 19.6436 14.5461 19.8367C15.2799 20.0449 16.056 20.0535 16.7942 19.8615C17.5324 19.6695 18.2059 19.2839 18.7453 18.7445C19.2846 18.2052 19.6702 17.5316 19.8622 16.7934C20.0542 16.0552 20.0457 15.2792 19.8374 14.5454ZM17.2882 15.5022L15.86 16.9304C15.7936 16.9973 15.7146 17.0505 15.6276 17.0867C15.5406 17.123 15.4473 17.1416 15.353 17.1416C15.2587 17.1416 15.1654 17.123 15.0784 17.0867C14.9914 17.0505 14.9124 16.9973 14.846 16.9304L14.1319 16.2163C13.9975 16.0818 13.9219 15.8995 13.9219 15.7093C13.9219 15.5192 13.9975 15.3368 14.1319 15.2023C14.2664 15.0679 14.4488 14.9923 14.6389 14.9923C14.8291 14.9923 15.0115 15.0679 15.1459 15.2023L15.353 15.4165L16.2742 14.4882C16.4086 14.3538 16.591 14.2782 16.7812 14.2782C16.9713 14.2782 17.1537 14.3538 17.2882 14.4882C17.4226 14.6227 17.4982 14.8051 17.4982 14.9952C17.4982 15.1854 17.4226 15.3678 17.2882 15.5022Z" fill="white"/>
<path d="M9.99716 10.7109H7.14083C6.76206 10.7109 6.3988 10.8614 6.13096 11.1292C5.86313 11.3971 5.71266 11.7603 5.71266 12.1391V12.8532C5.71266 13.0426 5.63743 13.2242 5.50351 13.3581C5.3696 13.492 5.18797 13.5673 4.99858 13.5673C4.80919 13.5673 4.62756 13.492 4.49365 13.3581C4.35973 13.2242 4.2845 13.0426 4.2845 12.8532V12.1391C4.28565 11.5711 4.45611 11.0164 4.7741 10.5458C5.09209 10.0751 5.54317 9.70999 6.0697 9.497C5.68841 9.02517 5.44846 8.45504 5.37761 7.85255C5.30676 7.25007 5.40791 6.63983 5.66935 6.09242C5.93079 5.54501 6.34184 5.08278 6.85497 4.7592C7.36811 4.43561 7.96236 4.26389 8.56899 4.26389C9.17563 4.26389 9.76988 4.43561 10.283 4.7592C10.7961 5.08278 11.2072 5.54501 11.4686 6.09242C11.7301 6.63983 11.8312 7.25007 11.7604 7.85255C11.6895 8.45504 11.4496 9.02517 11.0683 9.497C11.7346 9.76573 12.2751 10.2757 12.5821 10.9252C13.2378 10.4953 13.975 10.2049 14.7477 10.0723C15.5204 9.93959 16.3122 9.96739 17.0737 10.154C17.1094 9.76835 17.138 9.3756 17.138 8.98286V3.57011C17.1379 3.42336 17.0926 3.28019 17.0083 3.16008C16.924 3.03998 16.8047 2.94877 16.6667 2.89887L8.81178 0.0425412C8.65489 -0.0141804 8.4831 -0.0141804 8.32621 0.0425412L0.471295 2.89887C0.333284 2.94877 0.213997 3.03998 0.129668 3.16008C0.0453389 3.28019 6.24391e-05 3.42336 0 3.57011V8.99714C0.00350691 11.4944 0.825129 13.9218 2.33914 15.9078C3.85316 17.8938 5.97618 19.3291 8.38333 19.994C8.50414 20.0323 8.63385 20.0323 8.75466 19.994C9.55801 19.7748 10.3341 19.4658 11.0683 19.0728C10.671 18.5283 10.3758 17.9162 10.1971 17.2662C9.94655 16.3516 9.92763 15.389 10.1421 14.4652C10.3565 13.5415 10.7975 12.6856 11.4253 11.9749C11.3849 11.6252 11.2167 11.3028 10.9531 11.0696C10.6896 10.8363 10.3491 10.7086 9.99716 10.7109Z" fill="white"/>
</svg>
