<svg width="20" height="22" viewBox="0 0 20 22" fill="none" xmlns="http://www.w3.org/2000/svg">
<path fill-rule="evenodd" clip-rule="evenodd" d="M8.57143 5C8.57143 3.2248 9.19907 1.70956 10.4543 0.454314C10.5594 0.349236 10.6663 0.248564 10.775 0.152279C10.2921 0.0507571 9.79593 0 9.28636 0H9.28507C7.44264 0 5.83807 0.6178 4.4714 1.85339C3.10471 3.08899 2.32879 4.62333 2.14362 6.45643L1.53801 12.452C0.512672 12.9266 0 13.7757 0 14.9993V15.0007C0 16.905 0.952143 17.8571 2.85643 17.8571H15.715C17.6193 17.8571 18.5714 16.905 18.5714 15.0007V14.9993C18.5714 13.7757 18.0588 12.9266 17.0334 12.452L16.9029 11.1591C16.3058 11.3388 15.6715 11.4286 15 11.4286C13.2248 11.4286 11.7096 10.8009 10.4543 9.54571C9.19907 8.29043 8.57143 6.77521 8.57143 5ZM11.4645 1.46446C10.4881 2.44077 10 3.61929 10 5C10 6.38071 10.4881 7.55921 11.4645 8.5355C12.4408 9.51186 13.6193 10 15 10C16.3807 10 17.5592 9.51186 18.5355 8.5355C19.5119 7.55921 20 6.38071 20 5C20 3.61929 19.5119 2.44077 18.5355 1.46446C17.5592 0.488157 16.3807 0 15 0C13.6193 0 12.4408 0.488157 11.4645 1.46446ZM14.3291 4.39032L14.0765 4.13778C13.937 3.99831 13.7686 3.92857 13.5714 3.92857C13.3742 3.92857 13.2059 3.99831 13.0664 4.13778C12.9994 4.20476 12.9478 4.282 12.9115 4.36951C12.8753 4.45702 12.8571 4.54814 12.8571 4.64286C12.8571 4.73758 12.8753 4.82869 12.9115 4.9162C12.9478 5.00371 12.9994 5.08096 13.0664 5.14794L14.1378 6.21936C14.2773 6.35884 14.4456 6.42857 14.6429 6.42857C14.8401 6.42857 15.0084 6.35884 15.1479 6.21936L17.2908 4.07651C17.3578 4.00953 17.4094 3.93229 17.4456 3.84477C17.4819 3.75726 17.5 3.66615 17.5 3.57143C17.5 3.47671 17.4819 3.38559 17.4456 3.29809C17.4094 3.21057 17.3578 3.13333 17.2908 3.06635C17.1513 2.92688 16.9829 2.85714 16.7857 2.85714C16.5885 2.85714 16.4201 2.92688 16.2806 3.06635L15.2705 4.07651L14.6429 4.70414L14.3291 4.39032ZM6.25529 20.1734C5.97836 19.8964 5.74729 19.6006 5.562 19.2857H13.0094C12.8241 19.6006 12.5931 19.8964 12.3161 20.1734C11.4794 21.0101 10.4692 21.4286 9.28571 21.4286C8.10229 21.4286 7.09207 21.0101 6.25529 20.1734Z" fill="white"/>
</svg>
