<svg width="20" height="20" viewBox="0 0 20 20" fill="none" xmlns="http://www.w3.org/2000/svg">
<path fill-rule="evenodd" clip-rule="evenodd" d="M7.15419 11.8165L11.4559 7.51403C11.74 7.23002 12.2017 7.23002 12.4857 7.51403C12.7697 7.79878 12.7697 8.25976 12.4857 8.54451L8.18393 12.8463L11.5608 19.225C11.8332 19.7399 12.3874 20.0428 12.9678 19.9947C13.5489 19.9467 14.0456 19.5571 14.2298 19.0036C15.5116 15.1592 18.726 5.515 19.9255 1.91745C20.0995 1.39384 19.9633 0.817074 19.5737 0.426734C19.1834 0.0363933 18.6066 -0.0997902 18.083 0.0749892L0.996131 5.77061C0.443392 5.95486 0.0537738 6.4508 0.00498126 7.03194C-0.0430831 7.61308 0.259878 8.16655 0.775477 8.43964L7.15419 11.8165Z" fill="white"/>
</svg>
