<svg width="25" height="25" viewBox="0 0 25 25" fill="none" xmlns="http://www.w3.org/2000/svg">
<path d="M12.5 0C5.64854 0 0 5.5731 0 12.5C0 19.3919 5.61777 25 12.5 25C19.4016 25 25 19.3704 25 12.5C25 5.56392 19.3405 0 12.5 0ZM13.3152 4.49141L16.2939 2.3272C18.1572 3.02461 19.7794 4.2126 20.9984 5.74248L19.86 9.24648L16.5152 10.3333L13.3152 8.0085V4.49141ZM8.7061 2.32725L11.6848 4.49146V8.00859L8.48486 10.3334L5.14004 9.24653L4.00161 5.74253C5.22061 4.2126 6.84282 3.02461 8.7061 2.32725ZM3.4396 18.4913C2.37959 16.8937 1.74053 14.9998 1.65396 12.964L4.63608 10.7972L7.97476 11.882L9.19937 15.6511L7.13594 18.4912L3.4396 18.4913ZM15.4031 22.964C14.4772 23.2212 13.5065 23.3696 12.5 23.3696C11.4935 23.3696 10.5227 23.2212 9.59697 22.964L8.45513 19.4495L10.516 16.613H14.4842L16.545 19.4495L15.4031 22.964ZM17.864 18.4913L15.8006 15.6512L17.0252 11.8821L20.364 10.7973L23.3461 12.9638C23.2596 14.9997 22.6205 16.8936 21.5604 18.4913H17.864Z" fill="white"/>
</svg>
