<svg width="25" height="25" viewBox="0 0 25 25" fill="none" xmlns="http://www.w3.org/2000/svg">
<path d="M19.3182 1.18441e-07H10.2273C8.91744 -0.000267217 7.64774 0.452027 6.63306 1.28033C5.61839 2.10864 4.92106 3.26209 4.65909 4.54545H4.54545C3.33993 4.54545 2.18377 5.02435 1.33133 5.87679C0.478895 6.72923 0 7.88538 0 9.09091V19.3182C0 20.0643 0.146965 20.8032 0.432503 21.4925C0.718041 22.1819 1.13656 22.8082 1.66417 23.3358C2.72971 24.4014 4.17491 25 5.68182 25H21.5909C22.4951 25 23.3622 24.6408 24.0015 24.0015C24.6408 23.3622 25 22.4951 25 21.5909V5.68182C25 4.93567 24.853 4.19683 24.5675 3.50748C24.282 2.81813 23.8634 2.19177 23.3358 1.66417C22.8082 1.13656 22.1819 0.718041 21.4925 0.432503C20.8032 0.146965 20.0643 1.18441e-07 19.3182 1.18441e-07ZM14.7727 18.1818H5.68182C5.38044 18.1818 5.0914 18.0621 4.87829 17.849C4.66518 17.6359 4.54545 17.3468 4.54545 17.0455C4.54545 16.7441 4.66518 16.455 4.87829 16.2419C5.0914 16.0288 5.38044 15.9091 5.68182 15.9091H14.7727C15.0741 15.9091 15.3631 16.0288 15.5763 16.2419C15.7894 16.455 15.9091 16.7441 15.9091 17.0455C15.9091 17.3468 15.7894 17.6359 15.5763 17.849C15.3631 18.0621 15.0741 18.1818 14.7727 18.1818ZM14.7727 13.6364H5.68182C5.38044 13.6364 5.0914 13.5166 4.87829 13.3035C4.66518 13.0904 4.54545 12.8014 4.54545 12.5C4.54545 12.1986 4.66518 11.9096 4.87829 11.6965C5.0914 11.4834 5.38044 11.3636 5.68182 11.3636H14.7727C15.0741 11.3636 15.3631 11.4834 15.5763 11.6965C15.7894 11.9096 15.9091 12.1986 15.9091 12.5C15.9091 12.8014 15.7894 13.0904 15.5763 13.3035C15.3631 13.5166 15.0741 13.6364 14.7727 13.6364ZM22.7273 21.5909C22.7273 21.8923 22.6075 22.1813 22.3944 22.3944C22.1813 22.6075 21.8923 22.7273 21.5909 22.7273C21.2895 22.7273 21.0005 22.6075 20.7874 22.3944C20.5743 22.1813 20.4545 21.8923 20.4545 21.5909V9.09091C20.4545 7.88538 19.9756 6.72923 19.1232 5.87679C18.2708 5.02435 17.1146 4.54545 15.9091 4.54545H7.02273C7.25717 3.88233 7.69099 3.30795 8.2647 2.90107C8.83841 2.49418 9.52393 2.2747 10.2273 2.27273H19.3182C20.2223 2.27273 21.0894 2.6319 21.7288 3.27123C22.3681 3.91056 22.7273 4.77767 22.7273 5.68182V21.5909Z" fill="#464646"/>
</svg>
