<svg width="25" height="25" viewBox="0 0 25 25" fill="none" xmlns="http://www.w3.org/2000/svg">
<path d="M22.0238 11.9047H20.2381V7.14286C20.2381 5.8274 19.1727 4.76189 17.8571 4.76189H13.0953V2.97617C13.0953 1.33331 11.7619 0 10.119 0C8.47617 0 7.14286 1.33331 7.14286 2.97617V4.76189H2.38097C1.06551 4.76189 0.011942 5.82734 0.011942 7.14286L0.00597098 11.6667H1.78571C3.55954 11.6667 5 13.1071 5 14.881C5 16.6548 3.55954 18.0953 1.78571 18.0953H0.00597098L0 22.619C0 23.9345 1.06546 25 2.38097 25H6.9048V23.2143C6.9048 21.4405 8.34526 20 10.1191 20C11.8929 20 13.3334 21.4405 13.3334 23.2143V25H17.8571C19.1726 25 20.2381 23.9345 20.2381 22.619V17.8571H22.0238C23.6667 17.8571 25 16.5238 25 14.881C25 13.2381 23.6667 11.9047 22.0238 11.9047Z" fill="#464646"/>
</svg>
