<svg width="25" height="25" viewBox="0 0 25 25" fill="none" xmlns="http://www.w3.org/2000/svg">
<path d="M1.64129 9.03264C1.7727 9.48319 1.95507 9.91766 2.18571 10.3253L1.52865 11.154C1.3141 11.4249 1.33824 11.8111 1.57961 12.0551L2.71137 13.1869C2.95542 13.4309 3.34161 13.4524 3.61248 13.2378L4.43582 12.5861C4.85956 12.8302 5.31012 13.0206 5.77945 13.1547L5.90282 14.214C5.94304 14.5573 6.23269 14.8148 6.57597 14.8148H8.17706C8.52034 14.8148 8.80999 14.5573 8.85021 14.214L8.96822 13.1922C9.47241 13.0608 9.95515 12.865 10.4084 12.6103L11.2049 13.2405C11.4758 13.455 11.862 13.4309 12.106 13.1895L13.2378 12.0578C13.4818 11.8137 13.5033 11.4275 13.2887 11.1567L12.6692 10.3709C12.9267 9.92565 13.1278 9.45098 13.2619 8.95483L14.2167 8.84488C14.56 8.80465 14.8174 8.51501 14.8174 8.17172V6.57063C14.8174 6.22735 14.56 5.93771 14.2167 5.89748L13.2753 5.78752C13.1466 5.29674 12.9535 4.8274 12.7068 4.38757L13.2861 3.65542C13.5006 3.38455 13.4765 2.99835 13.2351 2.7543L12.1061 1.62523C11.862 1.38117 11.4758 1.35972 11.2049 1.57427L10.4942 2.13747C10.033 1.8666 9.53946 1.66009 9.02188 1.52063L8.91461 0.600744C8.87438 0.257462 8.58473 0 8.24145 0H6.64036C6.29708 0 6.00744 0.257462 5.96721 0.600744L5.85993 1.52063C5.32892 1.66277 4.82204 1.87732 4.35003 2.15892L3.61251 1.57427C3.34164 1.35972 2.95544 1.38386 2.71139 1.62523L1.57963 2.75698C1.33558 3.00104 1.31413 3.38723 1.52868 3.6581L2.14551 4.43853C1.89878 4.88372 1.71105 5.35842 1.58768 5.85189L0.600744 5.96453C0.257462 6.00475 0 6.2944 0 6.63768V8.23877C0 8.58205 0.257462 8.8717 0.600744 8.91193L1.64129 9.03264ZM7.44222 4.70138C8.90117 4.70138 10.0892 5.88946 10.0892 7.34841C10.0892 8.80736 8.90117 9.99544 7.44222 9.99544C5.9833 9.99544 4.7952 8.80736 4.7952 7.34841C4.7952 5.88946 5.98327 4.70138 7.44222 4.70138Z" fill="#464646"/>
<path d="M23.2707 9.42686L22.4259 8.71348C22.1658 8.49356 21.7823 8.50429 21.5356 8.73762L21.0689 9.17477C20.6747 8.98435 20.2564 8.85026 19.8245 8.77248L19.6932 8.12883C19.6261 7.79627 19.3177 7.56563 18.9797 7.59245L17.8775 7.68632C17.5396 7.71582 17.2741 7.99205 17.2633 8.33265L17.2419 8.98703C16.8181 9.1399 16.4185 9.34909 16.0538 9.61191L15.496 9.24181C15.2117 9.05408 14.8335 9.10772 14.6137 9.36786L13.9003 10.218C13.6803 10.4782 13.6911 10.8617 13.9244 11.1084L14.4125 11.6287C14.2435 12.0095 14.1228 12.4091 14.0531 12.8194L13.3558 12.9616C13.0233 13.0286 12.7926 13.337 12.8194 13.675L12.9133 14.7772C12.9428 15.1152 13.219 15.3807 13.5596 15.3914L14.3133 15.4155C14.4501 15.7749 14.6297 16.1155 14.8469 16.4346L14.4259 17.0702C14.2382 17.3545 14.2918 17.7327 14.5519 17.9526L15.3967 18.666C15.6569 18.8859 16.0404 18.8751 16.2872 18.6418L16.8396 18.1242C17.2017 18.2932 17.5825 18.4192 17.974 18.4943L18.1269 19.2506C18.194 19.5832 18.5024 19.8138 18.8403 19.787L19.9426 19.6931C20.2805 19.6636 20.546 19.3874 20.5567 19.0468L20.5809 18.3066C20.9831 18.1644 21.3639 17.9713 21.7153 17.7327L22.3241 18.1349C22.6084 18.3227 22.9865 18.269 23.2064 18.0089L23.9198 17.1641C24.1397 16.9039 24.129 16.5204 23.8957 16.2737L23.4049 15.7534C23.5846 15.3726 23.716 14.9703 23.7911 14.5573L24.4615 14.4205C24.7941 14.3535 25.0247 14.0451 24.9979 13.7071L24.904 12.6049C24.8745 12.2669 24.5983 12.0014 24.2577 11.9907L23.5846 11.9692C23.4451 11.5777 23.2573 11.2076 23.024 10.8643L23.3914 10.3118C23.5846 10.0276 23.5309 9.64678 23.2707 9.42686ZM19.1165 15.799C17.9258 15.9009 16.8744 15.0132 16.7752 13.8225C16.6733 12.6317 17.561 11.5804 18.7518 11.4812C19.9425 11.3793 20.9939 12.267 21.0931 13.4577C21.195 14.6485 20.3073 15.6998 19.1165 15.799Z" fill="#464646"/>
<path d="M5.49785 18.7652C5.15993 18.8 4.89979 19.0843 4.89711 19.4249L4.88906 20.1034C4.8837 20.444 5.1358 20.7337 5.47371 20.7766L5.97255 20.841C6.05568 21.144 6.17369 21.4337 6.32655 21.7072L6.00473 22.1042C5.79018 22.3696 5.80627 22.7505 6.04496 22.9945L6.51965 23.48C6.75834 23.724 7.13917 23.7508 7.41004 23.5416L7.80961 23.2332C8.09121 23.3995 8.38893 23.5309 8.7 23.6221L8.75364 24.137C8.7885 24.4749 9.07278 24.7351 9.41338 24.7378L10.0919 24.7458C10.4325 24.7512 10.7222 24.4991 10.7651 24.1612L10.8268 23.6731C11.1647 23.5899 11.4865 23.4639 11.7923 23.2976L12.1677 23.6006C12.4332 23.8152 12.8141 23.7991 13.0581 23.5604L13.5436 23.0857C13.7876 22.8471 13.8144 22.4662 13.6053 22.1953L13.3182 21.8225C13.4953 21.5275 13.6321 21.2137 13.7259 20.8839L14.1711 20.8383C14.509 20.8034 14.7692 20.5191 14.7719 20.1785L14.7799 19.5C14.7853 19.1594 14.5332 18.8697 14.1953 18.8268L13.7608 18.7705C13.6776 18.4433 13.5543 18.1269 13.3934 17.8318L13.6642 17.4993C13.8788 17.2338 13.8627 16.853 13.624 16.6089L13.1493 16.1235C12.9107 15.8794 12.5298 15.8526 12.2589 16.0618L11.9344 16.3112C11.6287 16.1262 11.3015 15.984 10.9582 15.8875L10.9153 15.4664C10.8804 15.1285 10.5962 14.8684 10.2555 14.8657L9.57701 14.8576C9.23641 14.8523 8.94676 15.1044 8.90383 15.4423L8.85019 15.8607C8.4962 15.9518 8.1556 16.0913 7.83914 16.2737L7.50391 16.0001C7.2384 15.7856 6.85754 15.8017 6.61349 16.0403L6.12539 16.5177C5.88133 16.7564 5.85452 17.1373 6.0637 17.4081L6.35066 17.7782C6.18439 18.0732 6.05297 18.387 5.96715 18.7169L5.49785 18.7652ZM9.87738 17.9981C10.8509 18.0088 11.6313 18.8108 11.6206 19.7843C11.6099 20.7578 10.808 21.5382 9.83444 21.5275C8.86092 21.5168 8.08051 20.7149 8.09121 19.7414C8.10197 18.7679 8.90385 17.9874 9.87738 17.9981Z" fill="#464646"/>
</svg>
